<svg width="70" height="70" viewBox="0 0 70 70" fill="none" xmlns="http://www.w3.org/2000/svg">
<path d="M58.8648 34.3917C64.592 34.3917 69.2517 29.7443 69.2517 24.0321C69.2517 18.3192 64.592 13.6719 58.8648 13.6719C53.136 13.6719 48.4747 18.3192 48.4747 24.0321C48.4747 29.7443 53.1354 34.3917 58.8648 34.3917ZM58.8648 17.7734C62.3303 17.7734 65.1501 20.581 65.1501 24.0315C65.1501 27.4826 62.3303 30.2896 58.8648 30.2896C55.3972 30.2896 52.5763 27.4826 52.5763 24.0315C52.5763 20.581 55.3972 17.7734 58.8648 17.7734Z" fill="white"/>
<path d="M58.8643 36.7474C52.203 36.7474 47.7281 42.6333 47.7281 48.1298V52.6319C47.7281 54.6133 49.341 56.2251 51.3234 56.2251H66.403C68.3865 56.2251 69.9999 54.6133 69.9999 52.6319V48.1298C69.9999 42.6333 65.525 36.7474 58.8643 36.7474ZM65.8984 52.1235H51.8297V48.1298C51.8297 43.7746 55.4672 40.849 58.8643 40.849C62.2609 40.849 65.8984 43.7746 65.8984 48.1298V52.1235Z" fill="white"/>
<path d="M32.7115 36.4318C37.8758 36.4318 42.0778 32.241 42.0778 27.0895C42.0778 21.938 37.8758 17.7467 32.7115 17.7467C27.5456 17.7467 23.3425 21.938 23.3425 27.0895C23.3425 32.241 27.5456 36.4318 32.7115 36.4318ZM32.7115 21.8483C35.6141 21.8483 37.9762 24.1997 37.9762 27.0895C37.9762 29.9793 35.6146 32.3302 32.7115 32.3302C29.8067 32.3302 27.4441 29.9793 27.4441 27.0895C27.4441 24.1997 29.8067 21.8483 32.7115 21.8483Z" fill="white"/>
<path d="M32.711 38.63C26.7146 38.63 22.6873 43.9252 22.6873 48.87V52.8204C22.6873 54.6977 24.2152 56.2251 26.0935 56.2251H39.3263C41.2057 56.2251 42.7347 54.6977 42.7347 52.8204V48.87C42.7341 43.9246 38.7068 38.63 32.711 38.63ZM38.6326 52.1235H26.7883V48.87C26.7883 45.1984 29.8506 42.7316 32.7104 42.7316C35.5708 42.7316 38.6326 45.1984 38.6326 48.87V52.1235Z" fill="white"/>
<path d="M8.79802 38.686C13.3423 38.686 17.039 34.9978 17.039 30.4648C17.039 25.9317 13.3423 22.244 8.79802 22.244C4.25266 22.244 0.554321 25.9317 0.554321 30.4648C0.554321 34.9978 4.25266 38.686 8.79802 38.686ZM8.79802 26.3456C11.0806 26.3456 12.9375 28.1934 12.9375 30.4648C12.9375 32.7366 11.0806 34.5845 8.79802 34.5845C6.51439 34.5845 4.65588 32.7366 4.65588 30.4648C4.65588 28.1934 6.51386 26.3456 8.79802 26.3456Z" fill="white"/>
<path d="M8.79751 40.7053C3.53492 40.7053 0 45.349 0 49.6855V53.0287C0 54.7916 1.43448 56.225 3.19793 56.225H14.3955C16.1595 56.225 17.5945 54.7916 17.5945 53.0287V49.6855C17.5945 45.349 14.0596 40.7053 8.79751 40.7053ZM13.4929 52.1235H4.10155V49.6855C4.10155 46.7674 6.52938 44.8069 8.79751 44.8069C11.0651 44.8069 13.4929 46.7674 13.4929 49.6855V52.1235Z" fill="white"/>
</svg>
