<svg width="90" height="90" viewBox="0 0 90 90" fill="none" xmlns="http://www.w3.org/2000/svg">
<g clip-path="url(#clip0_20_137)">
<path d="M82.5168 37.1262C79.3054 37.1262 76.5601 39.1607 75.5013 42.0082H61.1168C60.7028 39.482 59.7044 37.1509 58.2659 35.1569L68.2655 25.1573C69.2659 25.6393 70.3694 25.8954 71.5126 25.8954C73.5114 25.8954 75.3908 25.1168 76.8039 23.7036C78.217 22.2905 78.9957 20.4112 78.9957 18.4124C78.9957 16.4135 78.217 14.5349 76.8039 13.1211C73.8864 10.2042 69.1396 10.2042 66.222 13.1211H66.2213C64.8082 14.5349 64.0303 16.4135 64.0303 18.4124C64.0303 19.4334 64.2342 20.4229 64.6215 21.3347L54.5271 31.4291C52.5427 30.007 50.226 29.0196 47.7177 28.6083V14.4525C50.5034 13.3628 52.483 10.6505 52.483 7.48305C52.483 3.357 49.126 0 44.9999 0C40.8739 0 37.5169 3.35632 37.5169 7.48305C37.5169 10.7089 39.5699 13.4651 42.4374 14.5136V28.6083C39.9297 29.0196 37.613 30.0064 35.6279 31.4291L25.4786 21.2798C25.8302 20.4043 26.0156 19.4616 26.0156 18.49C26.0156 16.4911 25.2369 14.6118 23.8238 13.1987C22.4107 11.7849 20.5313 11.0069 18.5325 11.0069C16.5337 11.0069 14.655 11.7849 13.2412 13.1987C11.8281 14.6118 11.0502 16.4904 11.0502 18.4893C11.0502 20.4881 11.8281 22.3674 13.2412 23.7806C14.7004 25.239 16.6168 25.9689 18.5325 25.9689C19.6895 25.9689 20.8451 25.7011 21.9012 25.1696L31.8891 35.1569C30.4499 37.1509 29.4522 39.482 29.0375 42.0082H14.4676C13.3882 39.2012 10.665 37.2038 7.48305 37.2038C3.357 37.2038 0 40.5608 0 44.6868C0 48.8129 3.357 52.1699 7.48305 52.1699C10.6945 52.1699 13.4397 50.1353 14.4985 47.2878H29.0375C29.4495 49.7961 30.4362 52.1129 31.8589 54.0973L21.3526 64.6036C18.6445 63.4954 15.4145 64.0385 13.2193 66.233H13.2186C10.301 69.1506 10.301 73.898 13.2193 76.8156C14.6777 78.274 16.5941 79.0039 18.5099 79.0039C20.4263 79.0039 22.3427 78.274 23.8011 76.8156C26.1261 74.4906 26.5965 71.0045 25.2156 68.2071L35.586 57.8367C37.58 59.2752 39.9119 60.2736 42.4374 60.6877V75.5164C39.6104 76.5862 37.5945 79.3198 37.5945 82.5168C37.5945 86.6428 40.9515 89.9998 45.0775 89.9998C49.2036 89.9998 52.5606 86.6435 52.5606 82.5168C52.5606 79.3198 50.5446 76.5862 47.7177 75.5164V60.6877C50.2431 60.2729 52.5743 59.2752 54.5683 57.836L64.9284 68.1968C63.5606 70.9894 64.0344 74.4638 66.3532 76.7826C67.8123 78.2417 69.728 78.971 71.6445 78.971C73.5609 78.971 75.4766 78.2417 76.9357 76.7826C79.8533 73.8651 79.8533 69.1183 76.9357 66.2007C74.7344 63.9994 71.492 63.4597 68.7791 64.5803L58.2961 54.0973C59.7188 52.1129 60.7055 49.7961 61.1168 47.2878H75.5322C76.6116 50.0948 79.3349 52.0923 82.5168 52.0923C86.6435 52.0923 89.9998 48.7353 89.9998 44.6092C89.9998 40.4832 86.6428 37.1262 82.5168 37.1262ZM45.0775 55.623C39.0261 55.623 34.1029 50.7004 34.1022 44.649C34.1022 44.6484 34.1022 44.6484 34.1022 44.6477V44.647C34.1029 38.597 39.0234 33.6758 45.0727 33.673H45.0775H45.0823C51.1316 33.6758 56.0528 38.5976 56.0528 44.6484C56.0521 50.6997 51.1289 55.623 45.0775 55.623ZM69.9546 16.8544C70.8136 15.9961 72.2109 15.9954 73.0699 16.8544C73.486 17.2705 73.7154 17.8239 73.7154 18.4124C73.7154 19.0008 73.486 19.5536 73.0699 19.9697C72.6538 20.3858 72.1011 20.6151 71.5126 20.6151C70.9242 20.6151 70.3707 20.3858 69.9546 19.9697C69.5385 19.5543 69.3092 19.0008 69.3092 18.4124C69.3099 17.8239 69.5385 17.2705 69.9546 16.8544ZM44.9999 5.27961C46.2146 5.27961 47.2027 6.26769 47.2027 7.48305C47.2027 8.69772 46.2146 9.6858 44.9999 9.6858C43.7852 9.6858 42.7972 8.69772 42.7972 7.48305C42.7972 6.26769 43.7852 5.27961 44.9999 5.27961ZM16.9752 20.0473C16.5591 19.6312 16.3298 19.0777 16.3298 18.4893C16.3298 17.9008 16.5591 17.3481 16.9752 16.932C17.3913 16.5159 17.9441 16.2865 18.5325 16.2865C19.121 16.2865 19.6744 16.5159 20.0905 16.932C20.5066 17.3481 20.736 17.9008 20.736 18.4893C20.736 18.9493 20.5938 19.3867 20.3343 19.7554C20.3144 19.774 20.2938 19.7898 20.2745 19.809C20.1784 19.9051 20.094 20.0081 20.0164 20.1146C19.1526 20.9028 17.8095 20.8822 16.9752 20.0473ZM7.48305 46.8896C6.26838 46.8896 5.27961 45.9015 5.27961 44.6868C5.27961 43.4714 6.26838 42.4834 7.48305 42.4834C8.69772 42.4834 9.6858 43.4714 9.6858 44.6868C9.6858 45.9015 8.69772 46.8896 7.48305 46.8896ZM20.0679 73.0816C19.2089 73.9406 17.8116 73.9406 16.9526 73.0816C16.0936 72.2226 16.0936 70.8253 16.9526 69.9663C17.8116 69.1073 19.2089 69.1073 20.0679 69.9663C20.9269 70.8253 20.9269 72.2233 20.0679 73.0816ZM45.0775 84.7195C43.8628 84.7195 42.8741 83.7315 42.8741 82.5168C42.8741 81.3021 43.8628 80.314 45.0775 80.314C46.2922 80.314 47.2803 81.3021 47.2803 82.5168C47.2803 83.7315 46.2922 84.7195 45.0775 84.7195ZM71.6445 69.2886C72.2329 69.2886 72.7863 69.5179 73.2025 69.934C74.0614 70.793 74.0614 72.1903 73.2025 73.0493C72.7863 73.4654 72.2329 73.6948 71.6445 73.6948C71.056 73.6948 70.5033 73.4654 70.0872 73.0493C69.2282 72.1903 69.2282 70.793 70.0872 69.934C70.5033 69.5179 71.056 69.2886 71.6445 69.2886ZM82.5168 46.812C81.3021 46.812 80.314 45.8239 80.314 44.6092C80.314 43.3945 81.3021 42.4065 82.5168 42.4065C83.7315 42.4065 84.7202 43.3945 84.7202 44.6092C84.7202 45.8239 83.7315 46.812 82.5168 46.812Z" fill="white"/>
</g>
<defs>
<clipPath id="clip0_20_137">
<rect width="90" height="90" fill="white"/>
</clipPath>
</defs>
</svg>
