<svg width="90" height="90" viewBox="0 0 90 90" fill="none" xmlns="http://www.w3.org/2000/svg">
<g clip-path="url(#clip0_20_148)">
<path d="M79.6138 21.7549L58.7659 0.90637C58.3429 0.483398 57.8176 0.199814 57.247 0.0748442C57.2367 0.0720976 57.2264 0.0686644 57.2161 0.0666045C57.0087 0.0233458 56.7959 0 56.5782 0H12.6913C10.9273 0 9.49219 1.43509 9.49219 3.19976V86.8008C9.49219 88.5647 10.9273 89.9998 12.692 89.9998H77.3197C79.0844 89.9998 80.5195 88.5647 80.5195 86.8008V23.9405C80.5195 23.1145 80.1974 22.3379 79.6138 21.7549ZM59.3255 8.93187L71.6954 21.3018H59.3255V8.93187ZM14.7711 84.7216V5.27892H54.0472V23.9405C54.0472 25.3983 55.229 26.58 56.6867 26.58H75.2406V84.7216H14.7711Z" fill="white"/>
<path d="M67.0152 41.4424H33.3002C31.8425 41.4424 30.6608 42.6241 30.6608 44.0818C30.6608 45.5396 31.8425 46.7206 33.3002 46.7206H67.0152C68.4723 46.7206 69.654 45.5396 69.654 44.0818C69.654 42.6241 68.4723 41.4424 67.0152 41.4424Z" fill="white"/>
<path d="M67.0152 53.5479H33.3002C31.8425 53.5479 30.6608 54.7296 30.6608 56.1866C30.6608 57.6444 31.8425 58.8261 33.3002 58.8261H67.0152C68.4723 58.8261 69.654 57.6444 69.654 56.1866C69.654 54.7296 68.4723 53.5479 67.0152 53.5479Z" fill="white"/>
<path d="M67.0152 65.6528H33.3002C31.8425 65.6528 30.6608 66.8345 30.6608 68.2923C30.6608 69.75 31.8425 70.9318 33.3002 70.9318H67.0152C68.4723 70.9318 69.654 69.75 69.654 68.2923C69.654 66.8345 68.4723 65.6528 67.0152 65.6528Z" fill="white"/>
<path d="M25.5844 43.5662C25.5665 43.4817 25.5452 43.3973 25.5212 43.3162C25.4965 43.2331 25.4663 43.1507 25.4333 43.0718C25.401 42.9921 25.3626 42.9152 25.3241 42.839C25.2836 42.7621 25.2376 42.6879 25.1902 42.6159C25.1428 42.5451 25.0914 42.4751 25.0371 42.4085C24.9829 42.3412 24.9224 42.276 24.8627 42.2149C24.8016 42.1551 24.7364 42.0947 24.6691 42.0404C24.6025 41.9862 24.5338 41.9347 24.4617 41.8873C24.3896 41.8399 24.3154 41.796 24.2399 41.7555C24.1644 41.715 24.0847 41.6779 24.0058 41.6449C23.9268 41.6113 23.8437 41.5831 23.7634 41.5564C23.6803 41.5323 23.5958 41.511 23.5114 41.4932C23.4269 41.4774 23.3411 41.4637 23.2566 41.4561C23.0843 41.4389 22.9099 41.4389 22.7375 41.4561C22.651 41.4637 22.5652 41.4774 22.48 41.4932C22.3963 41.511 22.3111 41.5323 22.2308 41.5564C22.1477 41.5831 22.0667 41.6113 21.9877 41.6449C21.9067 41.6779 21.8298 41.715 21.7536 41.7555C21.678 41.796 21.6025 41.8399 21.5318 41.8873C21.4597 41.9347 21.3896 41.9862 21.3224 42.0404C21.2558 42.0947 21.1905 42.1551 21.1308 42.2149C21.069 42.276 21.0113 42.3412 20.955 42.4085C20.9021 42.4751 20.8493 42.5451 20.8019 42.6159C20.7545 42.6879 20.7106 42.7621 20.67 42.839C20.6295 42.9152 20.5925 42.9921 20.5588 43.0718C20.5258 43.1507 20.4977 43.2331 20.4709 43.3162C20.4462 43.3973 20.4256 43.4817 20.4077 43.5662C20.392 43.6506 20.3782 43.7365 20.3707 43.823C20.3617 43.9074 20.3569 43.9953 20.3569 44.0818C20.3569 44.1677 20.3617 44.2556 20.3707 44.3421C20.3782 44.4265 20.392 44.5124 20.4077 44.5968C20.4256 44.6813 20.4469 44.7657 20.4709 44.8488C20.4977 44.9298 20.5258 45.0122 20.5588 45.0912C20.5925 45.1709 20.6295 45.2498 20.67 45.3253C20.7106 45.4009 20.7545 45.475 20.8019 45.5471C20.8493 45.6192 20.9021 45.6879 20.955 45.7545C21.0113 45.8218 21.069 45.887 21.1308 45.9481C21.1905 46.0079 21.2558 46.0683 21.3224 46.1225C21.3896 46.1768 21.4597 46.2283 21.5318 46.2757C21.6025 46.323 21.678 46.369 21.7536 46.4075C21.8298 46.448 21.9067 46.4851 21.9877 46.5187C22.0667 46.5517 22.1477 46.5798 22.2308 46.6066C22.3111 46.6313 22.3956 46.6519 22.48 46.6698C22.5645 46.6856 22.651 46.6993 22.7375 46.7082C22.8234 46.7172 22.9099 46.7206 22.9964 46.7206C23.0822 46.7206 23.1701 46.7172 23.2566 46.7082C23.3411 46.6993 23.4269 46.6856 23.5114 46.6698C23.5958 46.6519 23.6803 46.6313 23.7634 46.6066C23.8437 46.5798 23.9268 46.5517 24.0058 46.5187C24.0847 46.4851 24.1644 46.448 24.2399 46.4075C24.3154 46.369 24.3896 46.323 24.4617 46.2757C24.5338 46.2283 24.6025 46.1768 24.6691 46.1225C24.7364 46.0683 24.8016 46.0079 24.8627 45.9481C24.9224 45.887 24.9829 45.8218 25.0371 45.7545C25.0914 45.6879 25.1428 45.6192 25.1902 45.5471C25.2376 45.475 25.2836 45.4009 25.3241 45.3253C25.3626 45.2498 25.401 45.1709 25.4333 45.0912C25.4663 45.0122 25.4965 44.9298 25.5212 44.8488C25.5459 44.7657 25.5665 44.6813 25.5844 44.5968C25.6022 44.5124 25.6146 44.4265 25.6228 44.3421C25.6317 44.2556 25.6352 44.1677 25.6352 44.0818C25.6352 43.9953 25.6317 43.9074 25.6228 43.823C25.6139 43.7365 25.6015 43.6506 25.5844 43.5662Z" fill="white"/>
<path d="M25.5844 55.671C25.5665 55.5865 25.5452 55.5021 25.5212 55.4218C25.4965 55.3387 25.4663 55.2563 25.4333 55.1766C25.401 55.0977 25.3626 55.0201 25.3241 54.9445C25.2836 54.8669 25.2376 54.7935 25.1902 54.7214C25.1428 54.6507 25.0914 54.5806 25.0371 54.5133C24.9829 54.4467 24.9224 54.3815 24.8627 54.3204C24.8016 54.26 24.7364 54.2002 24.6691 54.146C24.6025 54.091 24.5338 54.0402 24.4617 53.9929C24.3896 53.9455 24.3154 53.9015 24.2399 53.861C24.1644 53.8205 24.0847 53.7834 24.0058 53.7498C23.9268 53.7168 23.8437 53.6887 23.7634 53.6619C23.6803 53.6372 23.5958 53.6166 23.5114 53.5987C23.4269 53.5829 23.3411 53.5685 23.2566 53.5603C23.0843 53.5424 22.9099 53.5424 22.7375 53.5603C22.651 53.5685 22.5652 53.5829 22.48 53.5987C22.3963 53.6166 22.3111 53.6372 22.2308 53.6619C22.1477 53.6887 22.0667 53.7168 21.9877 53.7498C21.9067 53.7834 21.8298 53.8205 21.7536 53.861C21.678 53.9015 21.6025 53.9455 21.5318 53.9929C21.4597 54.0402 21.3896 54.091 21.3224 54.146C21.2558 54.2002 21.1905 54.26 21.1308 54.3204C21.069 54.3815 21.0113 54.4467 20.955 54.5133C20.9021 54.5806 20.8493 54.6507 20.8019 54.7214C20.7545 54.7935 20.7106 54.8669 20.67 54.9445C20.6295 55.0201 20.5925 55.0977 20.5588 55.1766C20.5258 55.2563 20.4977 55.3387 20.4709 55.4218C20.4462 55.5021 20.4256 55.5865 20.4077 55.671C20.392 55.7555 20.3782 55.842 20.3707 55.9285C20.3617 56.013 20.3569 56.1008 20.3569 56.1867C20.3569 56.2732 20.3617 56.3611 20.3707 56.4476C20.3782 56.5321 20.392 56.6179 20.4077 56.7023C20.4256 56.7868 20.4469 56.8713 20.4709 56.9543C20.4977 57.0347 20.5258 57.1178 20.5588 57.1967C20.5925 57.2757 20.6295 57.3533 20.67 57.4288C20.7106 57.5064 20.7545 57.5806 20.8019 57.6527C20.8493 57.7227 20.9021 57.7934 20.955 57.86C21.0113 57.9273 21.069 57.9919 21.1308 58.0537C21.1905 58.1134 21.2558 58.1731 21.3224 58.2281C21.3896 58.2823 21.4597 58.3338 21.5318 58.3812C21.6025 58.4286 21.678 58.4725 21.7536 58.513C21.8298 58.5535 21.9067 58.5906 21.9877 58.6236C22.0667 58.6572 22.1477 58.6854 22.2308 58.7115C22.3111 58.7362 22.3956 58.7575 22.48 58.7753C22.5645 58.7911 22.651 58.8048 22.7375 58.8138C22.8234 58.8227 22.9099 58.8261 22.9964 58.8261C23.0822 58.8261 23.1701 58.8227 23.2566 58.8138C23.3411 58.8048 23.4269 58.7911 23.5114 58.7753C23.5958 58.7575 23.6803 58.7362 23.7634 58.7115C23.8437 58.6854 23.9268 58.6572 24.0058 58.6236C24.0847 58.5906 24.1644 58.5535 24.2399 58.513C24.3154 58.4725 24.3896 58.4286 24.4617 58.3812C24.5338 58.3338 24.6025 58.2823 24.6691 58.2281C24.7364 58.1731 24.8016 58.1134 24.8627 58.0537C24.9224 57.9919 24.9829 57.9273 25.0371 57.86C25.0914 57.7934 25.1428 57.7227 25.1902 57.6527C25.2376 57.5806 25.2836 57.5064 25.3241 57.4288C25.3626 57.3533 25.401 57.2757 25.4333 57.1967C25.4663 57.1178 25.4965 57.0347 25.5212 56.9543C25.5459 56.8713 25.5665 56.7868 25.5844 56.7023C25.6022 56.6179 25.6146 56.5321 25.6228 56.4476C25.6317 56.3611 25.6352 56.2732 25.6352 56.1867C25.6352 56.1008 25.6317 56.013 25.6228 55.9285C25.6139 55.842 25.6015 55.7555 25.5844 55.671Z" fill="white"/>
<path d="M25.5844 67.7766C25.5665 67.6922 25.5452 67.6077 25.5212 67.5253C25.4965 67.4443 25.4663 67.3619 25.4333 67.2823C25.401 67.2033 25.3626 67.1243 25.3241 67.0481C25.2836 66.9726 25.2376 66.8991 25.1902 66.827C25.1428 66.7542 25.0914 66.6863 25.0371 66.619C24.9829 66.5524 24.9224 66.4871 24.8627 66.4253C24.8016 66.3656 24.7364 66.3059 24.6691 66.2516C24.6025 66.1967 24.5338 66.1459 24.4617 66.0985C24.3896 66.0504 24.3154 66.0051 24.2399 65.9646C24.1644 65.9261 24.0847 65.887 24.0058 65.8554C23.9268 65.8218 23.8437 65.7922 23.7634 65.7675C23.6803 65.7428 23.5958 65.7215 23.5114 65.7044C23.4269 65.6886 23.3411 65.6741 23.2566 65.6652C23.0843 65.6481 22.9099 65.6481 22.7375 65.6652C22.651 65.6741 22.5652 65.6886 22.48 65.7044C22.3963 65.7215 22.3111 65.7428 22.2308 65.7675C22.1477 65.7922 22.0667 65.8218 21.9877 65.8554C21.9067 65.887 21.8298 65.9261 21.7536 65.9646C21.678 66.0051 21.6025 66.0504 21.5318 66.0985C21.4597 66.1459 21.3896 66.1967 21.3224 66.2516C21.2558 66.3059 21.1905 66.3656 21.1308 66.4253C21.069 66.4871 21.0113 66.5524 20.955 66.619C20.9021 66.6863 20.8493 66.7542 20.8019 66.827C20.7545 66.8991 20.7106 66.9726 20.67 67.0481C20.6295 67.1243 20.5925 67.2033 20.5588 67.2823C20.5258 67.3619 20.4977 67.4443 20.4709 67.5253C20.4462 67.6077 20.4256 67.6922 20.4077 67.7766C20.392 67.8611 20.3782 67.9476 20.3707 68.0321C20.3617 68.1179 20.3569 68.2065 20.3569 68.2923C20.3569 68.3788 20.3617 68.4647 20.3707 68.5512C20.3782 68.637 20.392 68.7235 20.4077 68.808C20.4256 68.8924 20.4469 68.9769 20.4709 69.0579C20.4977 69.1403 20.5258 69.2234 20.5588 69.3024C20.5925 69.3813 20.6295 69.4589 20.67 69.5345C20.7106 69.612 20.7545 69.6862 20.8019 69.7583C20.8493 69.8283 20.9021 69.8991 20.955 69.9657C21.0113 70.0323 21.069 70.0975 21.1308 70.1593C21.1905 70.219 21.2558 70.2788 21.3224 70.3337C21.3896 70.388 21.4597 70.4388 21.5318 70.4861C21.6025 70.5342 21.678 70.5782 21.7536 70.6187C21.8298 70.6592 21.9067 70.6956 21.9877 70.7292C22.0667 70.7629 22.1477 70.791 22.2308 70.8171C22.3111 70.8418 22.3956 70.8631 22.48 70.8789C22.5645 70.8968 22.651 70.9105 22.7375 70.9174C22.8234 70.9263 22.9099 70.9318 22.9964 70.9318C23.0822 70.9318 23.1701 70.9263 23.2566 70.9174C23.3411 70.9105 23.4269 70.8968 23.5114 70.8789C23.5958 70.8631 23.6803 70.8418 23.7634 70.8171C23.8437 70.791 23.9268 70.7629 24.0058 70.7292C24.0847 70.6956 24.1644 70.6592 24.2399 70.6187C24.3154 70.5782 24.3896 70.5342 24.4617 70.4861C24.5338 70.4388 24.6025 70.388 24.6691 70.3337C24.7364 70.2788 24.8016 70.219 24.8627 70.1593C24.9224 70.0975 24.9829 70.0323 25.0371 69.9657C25.0914 69.8991 25.1428 69.8283 25.1902 69.7583C25.2376 69.6862 25.2836 69.612 25.3241 69.5345C25.3626 69.4589 25.401 69.3813 25.4333 69.3024C25.4663 69.2234 25.4965 69.1403 25.5212 69.0579C25.5459 68.9769 25.5665 68.8924 25.5844 68.808C25.6022 68.7235 25.6146 68.637 25.6228 68.5512C25.6317 68.4647 25.6352 68.3788 25.6352 68.2923C25.6352 68.2065 25.6317 68.1179 25.6228 68.0321C25.6139 67.9476 25.6015 67.8611 25.5844 67.7766Z" fill="white"/>
</g>
<defs>
<clipPath id="clip0_20_148">
<rect width="90" height="90" fill="white"/>
</clipPath>
</defs>
</svg>
