<svg width="70" height="70" viewBox="0 0 70 70" fill="none" xmlns="http://www.w3.org/2000/svg">
<g clip-path="url(#clip0_20_135)">
<path d="M69.9995 35.055C69.9995 35.0363 70 35.0182 70 35C70 25.6513 66.3593 16.8618 59.7488 10.2512C53.1382 3.64067 44.3487 0 35 0C25.6513 0 16.8618 3.64067 10.2512 10.2512C3.64067 16.8618 0 25.6513 0 35C0 35.0182 0.000534058 35.0363 0.000534058 35.055C0.000534058 35.0593 0 35.0636 0 35.0684C0 35.0758 0.00106812 35.0828 0.00106812 35.0903C0.0245667 44.4053 3.66203 53.1596 10.2512 59.7488C16.8618 66.3593 25.6513 70 35 70C35.9357 70 36.8655 69.9621 37.7883 69.8895C37.7963 69.8889 37.8038 69.8884 37.8118 69.8873C46.1004 69.2331 53.8052 65.6923 59.7488 59.7488C66.338 53.1596 69.9754 44.4053 69.9989 35.0903C69.9989 35.0828 70 35.0758 70 35.0684C70 35.0641 69.9995 35.0593 69.9995 35.055ZM63.2949 47.4574H51.4447C52.6127 43.5129 53.119 40.0079 53.2808 37.1186H65.8269C65.5844 40.7267 64.724 44.2141 63.2949 47.4574ZM6.70776 22.5367H18.5249C17.3398 26.5501 16.8479 30.107 16.7053 33.0181H4.16458C4.39476 29.3593 5.2594 25.8222 6.70776 22.5367ZM37.0502 18.4362V4.5694C38.8158 6.62125 42.7454 11.6131 45.6699 18.4362H37.0502ZM47.2123 22.5367C48.2564 25.7592 48.9998 29.2829 49.1926 33.0181H37.0502V22.5367H47.2123ZM32.9498 18.4362H24.3669C25.3031 16.2572 26.3168 14.3186 27.2717 12.6812C29.4896 8.87871 31.731 6.07491 32.9498 4.65805V18.4362ZM32.9498 22.5367V33.0181H20.8101C21.0098 29.2567 21.7794 25.7207 22.8181 22.5367H32.9498ZM4.17313 37.1186H16.7187C16.9195 40.7993 17.6079 44.2771 18.5569 47.4574H6.70509C5.27596 44.2141 4.41559 40.7267 4.17313 37.1186ZM20.8245 37.1186H32.9498V47.4574H22.8475C21.8008 44.2702 21.0451 40.794 20.8245 37.1186ZM32.9498 51.5574V65.3371C31.1911 63.2703 27.3192 58.3004 24.4064 51.5574H32.9498ZM37.0502 51.5574H45.6032C44.6766 53.7198 43.6758 55.6461 42.7321 57.2777C40.5115 61.1176 38.2668 63.9539 37.0502 65.3841V51.5574ZM37.0502 47.4574V37.1186H49.1734C48.948 40.8228 48.1789 44.3108 47.1509 47.4574H37.0502ZM53.2984 33.0181C53.1387 29.5361 52.5422 26.0358 51.5109 22.5367H63.2922C64.7406 25.8222 65.6052 29.3593 65.8354 33.0181H53.2984ZM61.0973 18.4362H50.1026C49.2049 16.1435 48.1229 13.8545 46.8555 11.5752C45.412 8.97911 43.9423 6.78467 42.6685 5.05539C47.9883 6.40762 52.8669 9.16817 56.8494 13.1506C58.4729 14.7736 59.8924 16.5462 61.0973 18.4362ZM13.1506 13.1506C17.1523 9.14894 22.0587 6.38039 27.4078 5.0351C26.3071 6.52084 25.051 8.36014 23.7923 10.5087C22.1794 13.2612 20.9174 15.916 19.931 18.4362H8.90274C10.1076 16.5462 11.5271 14.7736 13.1506 13.1506ZM8.899 51.5574H19.9732C21.1636 54.5898 22.5233 57.2494 23.7896 59.423C25.0596 61.6025 26.3258 63.4685 27.4335 64.9718C22.0742 63.6287 17.1587 60.8575 13.1506 56.8494C11.5255 55.2242 10.1044 53.4501 8.899 51.5574ZM56.8494 56.8494C52.8509 60.8484 47.9488 63.6153 42.6039 64.9622C43.7046 63.4615 44.9612 61.6041 46.2206 59.4358C47.8099 56.6998 49.058 54.0621 50.0364 51.5579H61.101C59.8956 53.4501 58.4745 55.2242 56.8494 56.8494Z" fill="white"/>
</g>
<defs>
<clipPath id="clip0_20_135">
<rect width="70" height="70" fill="white"/>
</clipPath>
</defs>
</svg>
