<svg width="70" height="70" viewBox="0 0 70 70" fill="none" xmlns="http://www.w3.org/2000/svg">
<g clip-path="url(#clip0_20_160)">
<path d="M36.0761 57.1993C25.1878 57.1993 13.9288 57.1993 13.3803 57.1971L13.3274 57.1961C5.77744 56.9676 -0.136719 50.8594 -0.136719 43.2898C-0.136719 37.4326 3.53439 32.1987 9.0181 30.2076C9.03145 25.3698 12.9648 21.4378 17.7975 21.4378C19.891 21.4378 21.8964 22.18 23.4831 23.5349C26.3776 17.0072 32.8088 12.8082 39.963 12.8082C49.9045 12.8082 57.9923 20.9118 57.9923 30.8722C57.9923 31.0472 57.9885 31.2302 57.981 31.4469C64.6642 31.9569 69.8633 37.5589 69.8633 44.3076C69.8633 51.2859 64.4127 56.9473 57.4545 57.1955L57.3637 57.1971C57.0812 57.1982 48.8567 57.1993 36.0761 57.1993ZM13.4251 53.0843C14.2449 53.087 25.835 53.087 36.0761 53.087C48.2996 53.087 56.8595 53.0854 57.3412 53.0843C62.0645 52.8987 65.7585 49.0497 65.7585 44.3076C65.7585 39.6549 62.1317 35.8027 57.5009 35.5367C55.4069 35.4163 53.7785 33.6114 53.8704 31.5133C53.8822 31.2447 53.8875 31.0472 53.8875 30.8722C53.8875 23.1796 47.6412 16.921 39.963 16.921C34.3479 16.921 29.3091 20.2702 27.1269 25.4538C26.6383 26.6107 25.6166 27.4593 24.3936 27.7264C23.1669 27.9923 21.8852 27.6429 20.9634 26.7921C20.0971 25.991 18.9735 25.5506 17.7975 25.5506C15.2351 25.5506 13.148 27.6263 13.1229 30.1868C13.1245 30.2376 13.1261 30.29 13.1261 30.3414C13.1448 32.0018 12.1071 33.483 10.5402 34.0304C6.60843 35.3997 3.96805 39.1208 3.96805 43.2898C3.96805 48.613 8.11981 52.9099 13.4251 53.0843Z" fill="white"/>
</g>
<defs>
<clipPath id="clip0_20_160">
<rect width="70" height="70" fill="white"/>
</clipPath>
</defs>
</svg>
