<svg width="90" height="90" viewBox="0 0 90 90" fill="none" xmlns="http://www.w3.org/2000/svg">
<g clip-path="url(#clip0_20_139)">
<path d="M39.8304 47.9507H63.63C63.9933 48.9168 64.5623 49.8225 65.3397 50.5984C66.7542 52.0102 68.6352 52.7881 70.6351 52.7881C72.6358 52.7881 74.5168 52.0102 75.9313 50.5984C78.8511 47.6843 78.8511 42.9423 75.9313 40.0275C74.5168 38.6157 72.6358 37.8384 70.6358 37.8384C68.6352 37.8384 66.7542 38.6157 65.3397 40.0275C64.5623 40.8034 63.994 41.7098 63.6307 42.6759H39.8304C39.4692 40.7842 38.7303 39.0243 37.6908 37.4814L49.6893 25.5323C51.9941 27.1714 54.8093 28.1388 57.8482 28.1388C65.6218 28.1388 71.9458 21.8279 71.9458 14.0694C71.9458 6.31167 65.6218 0 57.8482 0C50.0746 0 43.7513 6.31167 43.7513 14.0694C43.7513 16.8915 44.5906 19.5207 46.0299 21.7255L33.9756 33.7302C31.7032 32.164 28.9506 31.2432 25.9853 31.2432C18.2124 31.2432 11.8884 37.5548 11.8884 45.3133C11.8884 53.071 18.2124 59.3827 25.9853 59.3827C28.987 59.3827 31.7706 58.4386 34.0596 56.8366L45.4348 67.9404C43.8586 70.2118 42.9326 72.9646 42.9326 75.9302C42.9326 83.6887 49.2559 89.9997 57.0295 89.9997C64.8031 89.9997 71.1264 83.6887 71.1264 75.9302C71.1264 68.1725 64.8024 61.8608 57.0295 61.8608C54.1344 61.8608 51.4402 62.7377 49.1995 64.2373L37.7465 53.058C38.7565 51.5357 39.4761 49.8074 39.8304 47.9507ZM69.0762 43.7573C69.4931 43.3419 70.0462 43.1126 70.6358 43.1126C71.2247 43.1126 71.7779 43.3419 72.1948 43.7573C73.0541 44.615 73.0541 46.0116 72.1948 46.8692C71.7779 47.2847 71.2247 47.514 70.6351 47.514C70.0462 47.514 69.4931 47.2847 69.0762 46.8692C68.2169 46.0116 68.2169 44.615 69.0762 43.7573ZM57.8482 5.27414C62.7074 5.27414 66.6606 9.21963 66.6606 14.0694C66.6606 18.9192 62.7074 22.8647 57.8482 22.8647C52.9889 22.8647 49.0357 18.9192 49.0357 14.0694C49.0357 9.21963 52.9889 5.27414 57.8482 5.27414ZM17.1729 45.3133C17.1729 40.4635 21.1261 36.518 25.9853 36.518C30.8446 36.518 34.7978 40.4635 34.7978 45.3133C34.7978 50.1631 30.8446 54.1086 25.9853 54.1086C21.1261 54.1086 17.1729 50.1631 17.1729 45.3133ZM65.8419 75.9309C65.8419 80.7807 61.8887 84.7262 57.0295 84.7262C52.1702 84.7262 48.217 80.7807 48.217 75.9309C48.217 71.0811 52.1702 67.1357 57.0295 67.1357C61.8887 67.1357 65.8419 71.0811 65.8419 75.9309Z" fill="white"/>
</g>
<defs>
<clipPath id="clip0_20_139">
<rect width="90" height="90" fill="white"/>
</clipPath>
</defs>
</svg>
